<svg viewBox="0 0 64 64" xmlns="http://www.w3.org/2000/svg">
  <defs>
    <linearGradient id="grad1" x1="0%" y1="0%" x2="100%" y2="100%">
      <stop offset="0%" style="stop-color:#2563EB;stop-opacity:1" />
      <stop offset="100%" style="stop-color:#3B82F6;stop-opacity:1" />
    </linearGradient>
  </defs>
  <rect width="64" height="64" rx="12" fill="url(#grad1)" />
  <path d="M19.5 32c0-1.5 0.5-2.8 1.4-3.9s2.1-1.9 3.5-2.3c1.4-0.4 2.9-0.4 4.3 0s2.6 1.2 3.5 2.3 1.4 2.4 1.4 3.9c0 2.1-0.8 3.9-2.4 5.3s-3.6 2.1-5.9 2.1c-2.3 0-4.2-0.7-5.7-2.1s-2.3-3.2-2.3-5.3zM46.3 39.4l-6.2-6.2c0.7-2.4 0.4-4.6-0.9-6.7s-3.2-3.3-5.6-3.7c-2.4-0.4-4.7-0.1-6.7 1.1s-3.3 3-3.7 5.4c-0.4 2.4-0.1 4.7 1.1 6.7s3 3.3 5.4 3.7c2.4 0.4 4.7 0.1 6.7-1.1l6.2 6.2c0.5 0.5 1.1 0.7 1.8 0.7s1.3-0.2 1.8-0.7c0.5-0.5 0.7-1.1 0.7-1.8s-0.2-1.3-0.7-1.8z" fill="white" />
</svg>